<svg xmlns="http://www.w3.org/2000/svg" width="118.31" height="42.8" viewBox="0 0 118.31 42.8"><title>footer-logo</title><path d="M43.8,5.8a5.8,5.8,0,1,1-11.6,0A5.87,5.87,0,0,1,38,0a5.74,5.74,0,0,1,5.8,5.8Z" fill="#f60"/><path d="M42.11,41.1a5.63,5.63,0,0,1-8,0h0a5.62,5.62,0,0,1-1.59-3.19,15.5,15.5,0,0,0-3.88-7.48.1.1,0,0,0-.1-.1,9.25,9.25,0,0,0-12.91,0l-.1.1A15.39,15.39,0,0,0,11.61,38v.1A5.71,5.71,0,0,1,4.86,42.6,6.1,6.1,0,0,1,2,41.1,5.7,5.7,0,0,1,1.88,33,5.4,5.4,0,0,1,5,31.42a15.38,15.38,0,0,0,7.45-3.89v-.1a8.51,8.51,0,0,0,0-12l-.1-.1a16.18,16.18,0,0,0-7.45-3.89,5.14,5.14,0,0,1-3.08-1.6,5.7,5.7,0,0,1-.2-8.08,5.65,5.65,0,0,1,8.05-.2,1.93,1.93,0,0,1,.59.4,5.72,5.72,0,0,1,1.59,3.09,15.5,15.5,0,0,0,3.88,7.48l.1.1a9.07,9.07,0,0,0,12.91,0l.1-.1h0a2.15,2.15,0,0,1,3,0h0a2.18,2.18,0,0,1,0,3h0l-.2.2a8.52,8.52,0,0,0,0,11.67l.2.2a15.21,15.21,0,0,0,7.45,3.79A5.75,5.75,0,0,1,43.9,38a8,8,0,0,1-1.79,3.09Z" fill="#fff"/><path d="M51.3,11.5a2.51,2.51,0,0,1-1.9-.5,1.91,1.91,0,0,1-.6-1.6V8.6A1.66,1.66,0,0,1,49.4,7a2.62,2.62,0,0,1,1.9-.5,3.2,3.2,0,0,1,1.9.5,1.91,1.91,0,0,1,.6,1.6v.7a2.24,2.24,0,0,1-.6,1.7A4.14,4.14,0,0,1,51.3,11.5Zm2.1,28.6a2.1,2.1,0,1,1-4.2,0V17a2.1,2.1,0,1,1,4.2,0Z" fill="#fff"/><path d="M83,3.8a2.08,2.08,0,0,1,2.1,1.9V40.2a2.1,2.1,0,1,1-4.2,0v-5l1-.4a5,5,0,0,1-.8,2.6A10.88,10.88,0,0,1,79,40a11.56,11.56,0,0,1-3.2,2,11,11,0,0,1-4,.8A11.81,11.81,0,0,1,65.5,41,12.75,12.75,0,0,1,61,36a14.9,14.9,0,0,1-1.6-7.2A15.55,15.55,0,0,1,61,21.5a12.51,12.51,0,0,1,4.4-5,11.87,11.87,0,0,1,10.3-1.1,11.71,11.71,0,0,1,3.4,2,10.44,10.44,0,0,1,2.3,2.8,6.11,6.11,0,0,1,.8,3l-1.3-.3V5.9a2.2,2.2,0,0,1,.6-1.5A1.5,1.5,0,0,1,83,3.8ZM72.3,38.9a8.45,8.45,0,0,0,4.6-1.3A9,9,0,0,0,80,34a11.58,11.58,0,0,0,1.1-5.2A12.3,12.3,0,0,0,80,23.5a9,9,0,0,0-3.1-3.6,7.68,7.68,0,0,0-4.6-1.3,8.45,8.45,0,0,0-4.6,1.3,9.29,9.29,0,0,0-3.2,3.6,12.08,12.08,0,0,0,0,10.5,9.47,9.47,0,0,0,3.2,3.7A9.29,9.29,0,0,0,72.3,38.9Z" fill="#fff"/><path d="M118.3,28.7a15.76,15.76,0,0,1-1.8,7.3,12.82,12.82,0,0,1-4.8,5,13.48,13.48,0,0,1-18.6-5,15.3,15.3,0,0,1,0-14.4,12.41,12.41,0,0,1,4.9-5,13.93,13.93,0,0,1,13.7,0,12.82,12.82,0,0,1,4.8,5A13.42,13.42,0,0,1,118.3,28.7Zm-4.1,0a12.09,12.09,0,0,0-1.2-5.3,9,9,0,0,0-12.8-3.6,8.8,8.8,0,0,0-3.3,3.6,10.94,10.94,0,0,0-1.3,5.3A11.22,11.22,0,0,0,96.9,34a9.54,9.54,0,0,0,3.3,3.6,9,9,0,0,0,9.5,0A8.8,8.8,0,0,0,113,34,12.09,12.09,0,0,0,114.2,28.7Z" fill="#fff"/></svg>