<svg xmlns="http://www.w3.org/2000/svg" width="118.27" height="42.9" viewBox="0 0 118.27 42.9"><title>footer-logo</title><path d="M43.8,5.8a5.8,5.8,0,1,1-11.6,0A5.87,5.87,0,0,1,38,0a5.74,5.74,0,0,1,5.8,5.68Z" transform="translate(-0.04 0.03)" fill="#e8505b"/><path d="M42.11,41.1a5.63,5.63,0,0,1-8,0l0,0h0a5.62,5.62,0,0,1-1.59-3.19,15.54,15.54,0,0,0-3.88-7.48.09.09,0,0,0-.1-.1h0a9.25,9.25,0,0,0-12.91,0l-.1.1A15.43,15.43,0,0,0,11.61,38v.1a5.71,5.71,0,0,1-6.7,4.51h0A6,6,0,0,1,2,41.1,5.7,5.7,0,0,1,1.84,33l0,0A5.41,5.41,0,0,1,5,31.42a15.37,15.37,0,0,0,7.45-3.89v-.1a8.51,8.51,0,0,0,0-12l-.1-.1A16.23,16.23,0,0,0,4.9,11.44a5.17,5.17,0,0,1-3.08-1.6A5.69,5.69,0,0,1,1.6,1.78l0,0a5.66,5.66,0,0,1,8-.26l.06.06a2,2,0,0,1,.59.4,5.73,5.73,0,0,1,1.59,3.09,15.54,15.54,0,0,0,3.88,7.48l.1.1a9.08,9.08,0,0,0,12.83.08l.08-.08.1-.1h0a2.16,2.16,0,0,1,3,0h0a2.18,2.18,0,0,1,0,3h0l-.2.2a8.52,8.52,0,0,0,0,11.67l.2.2a15.21,15.21,0,0,0,7.45,3.79A5.76,5.76,0,0,1,43.9,38a8.07,8.07,0,0,1-1.79,3.09Z" transform="translate(-0.04 0.03)" fill="#fff"/><path d="M51.3,11.5a2.5,2.5,0,0,1-1.9-.5,1.92,1.92,0,0,1-.6-1.6V8.6A1.66,1.66,0,0,1,49.4,7a2.59,2.59,0,0,1,1.9-.5,3.2,3.2,0,0,1,1.9.5,1.92,1.92,0,0,1,.6,1.6v.7a2.22,2.22,0,0,1-.6,1.7A4.08,4.08,0,0,1,51.3,11.5Zm2.1,28.6a2.1,2.1,0,0,1-4.2,0V17a2.1,2.1,0,0,1,4.2,0Z" transform="translate(-0.04 0.03)" fill="#fff"/><path d="M83,3.8a2.08,2.08,0,0,1,2.1,1.9V40.2a2.1,2.1,0,0,1-4.2,0h0v-5l1-.4a5,5,0,0,1-.8,2.6A10.76,10.76,0,0,1,79,40a11.56,11.56,0,0,1-3.2,2,11,11,0,0,1-4,.8A11.79,11.79,0,0,1,65.5,41,12.76,12.76,0,0,1,61,36a14.86,14.86,0,0,1-1.6-7.2A15.51,15.51,0,0,1,61,21.5a12.57,12.57,0,0,1,4.4-5,11.88,11.88,0,0,1,10.3-1.1,11.76,11.76,0,0,1,3.4,2,10.53,10.53,0,0,1,2.3,2.8,6.07,6.07,0,0,1,.8,3l-1.3-.3V5.9a2.21,2.21,0,0,1,.6-1.5A1.49,1.49,0,0,1,83,3.8ZM72.3,38.9a8.41,8.41,0,0,0,4.6-1.3A8.93,8.93,0,0,0,80,34a11.64,11.64,0,0,0,1.1-5.2A12.24,12.24,0,0,0,80,23.5a8.93,8.93,0,0,0-3.1-3.6,7.68,7.68,0,0,0-4.6-1.3,8.41,8.41,0,0,0-4.6,1.3,9.33,9.33,0,0,0-3.2,3.6,12.08,12.08,0,0,0,0,10.5,9.46,9.46,0,0,0,3.2,3.7A9.26,9.26,0,0,0,72.3,38.9Z" transform="translate(-0.04 0.03)" fill="#fff"/><path d="M118.3,28.7a15.74,15.74,0,0,1-1.8,7.3,12.75,12.75,0,0,1-4.8,5,13.48,13.48,0,0,1-18.46-4.76L93.1,36a15.3,15.3,0,0,1,0-14.4,12.41,12.41,0,0,1,4.9-5,13.93,13.93,0,0,1,13.7,0,12.75,12.75,0,0,1,4.8,5A13.38,13.38,0,0,1,118.3,28.7Zm-4.1,0a12,12,0,0,0-1.2-5.3,9,9,0,0,0-12.08-4,6.3,6.3,0,0,0-.72.4,8.75,8.75,0,0,0-3.3,3.6,11,11,0,0,0-1.3,5.3A11.23,11.23,0,0,0,96.9,34a9.52,9.52,0,0,0,3.3,3.6,9,9,0,0,0,9.5,0A8.75,8.75,0,0,0,113,34,12,12,0,0,0,114.2,28.7Z" transform="translate(-0.04 0.03)" fill="#fff"/></svg>