<svg xmlns="http://www.w3.org/2000/svg" width="118.42" height="42.92" viewBox="0 0 118.42 42.92"><title>logo</title><path d="M43.81,5.76A5.77,5.77,0,1,1,38,0a5.77,5.77,0,0,1,5.81,5.78Z" transform="translate(0.09 0.12)" fill="#1a79ff"/><path d="M42.14,41.06a5.77,5.77,0,0,1-8.16,0h0a5.69,5.69,0,0,1-1.61-3.16,16,16,0,0,0-3.86-7.5l-.07-.07a9.3,9.3,0,0,0-13,0l-.06.07A16,16,0,0,0,11.44,38v.12a5.76,5.76,0,1,1-6.61-6.8,16,16,0,0,0,7.55-3.87l0-.06a8.55,8.55,0,0,0,0-12l-.06-.06a16,16,0,0,0-7.54-3.87,5.69,5.69,0,0,1-3.12-1.6A5.77,5.77,0,1,1,9.64,1.46a3.7,3.7,0,0,1,.28.28,5.74,5.74,0,0,1,1.56,3.1,16,16,0,0,0,3.86,7.51l.06.06a9.29,9.29,0,0,0,13.05,0l.07-.06h0a2.1,2.1,0,0,1,3,0l0,0a2.1,2.1,0,0,1,0,3h0l-.22.22a8.53,8.53,0,0,0,0,11.69l.22.22A16,16,0,0,0,39,31.31a5.76,5.76,0,0,1,3.13,9.75Z" transform="translate(0.09 0.12)" fill="#101010"/><path d="M51.29,11.45A3,3,0,0,1,49.36,11a2,2,0,0,1-.62-1.61V8.59A1.91,1.91,0,0,1,49.41,7a3.15,3.15,0,0,1,1.93-.52A2.84,2.84,0,0,1,53.21,7a2,2,0,0,1,.62,1.61v.73A1.9,1.9,0,0,1,53.18,11,2.93,2.93,0,0,1,51.29,11.45Zm2.08,28.66a2.1,2.1,0,0,1-.6,1.5,2.09,2.09,0,0,1-3,0,2.13,2.13,0,0,1-.57-1.5V17a2.07,2.07,0,0,1,.59-1.49A2.09,2.09,0,0,1,53.37,17Z" transform="translate(0.09 0.12)" fill="#101010"/><path d="M83,3.75a2,2,0,0,1,2.08,1.92V40.11a2.1,2.1,0,0,1-.6,1.5,2.09,2.09,0,0,1-3,0,2.13,2.13,0,0,1-.57-1.5v-5l1-.36a5.41,5.41,0,0,1-.78,2.63A9.91,9.91,0,0,1,79,40a11.51,11.51,0,0,1-3.19,2,10.18,10.18,0,0,1-4,.78A11.49,11.49,0,0,1,65.51,41,12.78,12.78,0,0,1,61,36a15.48,15.48,0,0,1-1.64-7.23A15.47,15.47,0,0,1,61,21.44a12.6,12.6,0,0,1,4.44-5,11.4,11.4,0,0,1,6.24-1.8,11.53,11.53,0,0,1,4.11.73,11,11,0,0,1,3.36,2,10.37,10.37,0,0,1,2.26,2.76,6.21,6.21,0,0,1,.83,3l-1.35-.31v-17a2,2,0,0,1,.57-1.48A2,2,0,0,1,83,3.75ZM72.3,38.91a8.07,8.07,0,0,0,4.6-1.33A8.93,8.93,0,0,0,80,34a11.91,11.91,0,0,0,1.12-5.22A12,12,0,0,0,80,23.46a9,9,0,0,0-3.12-3.61,8.25,8.25,0,0,0-4.6-1.33,8.07,8.07,0,0,0-4.55,1.33,9.16,9.16,0,0,0-3.15,3.61,11.67,11.67,0,0,0-1.15,5.26,11.56,11.56,0,0,0,1.15,5.17,9.25,9.25,0,0,0,3.15,3.67A7.9,7.9,0,0,0,72.3,38.91Z" transform="translate(0.09 0.12)" fill="#101010"/><path d="M118.32,28.72A14.5,14.5,0,0,1,116.53,36a13.5,13.5,0,0,1-4.84,5A13.81,13.81,0,0,1,98,41a13.35,13.35,0,0,1-4.87-5,14.49,14.49,0,0,1-1.79-7.23,14.49,14.49,0,0,1,1.79-7.23,13.28,13.28,0,0,1,4.87-5,13.74,13.74,0,0,1,13.7,0,13.27,13.27,0,0,1,4.84,5A14.48,14.48,0,0,1,118.32,28.72Zm-4.16,0a11.13,11.13,0,0,0-1.22-5.31,9.1,9.1,0,0,0-12.85-3.59,9.47,9.47,0,0,0-3.35,3.59,10.91,10.91,0,0,0-1.25,5.31A10.94,10.94,0,0,0,96.74,34a9.53,9.53,0,0,0,3.35,3.61,9.2,9.2,0,0,0,9.52,0A9.4,9.4,0,0,0,112.94,34,11.05,11.05,0,0,0,114.16,28.72Z" transform="translate(0.09 0.12)" fill="#101010"/></svg>