<svg xmlns="http://www.w3.org/2000/svg" width="117.97" height="42.7" viewBox="0 0 117.97 42.7"><title>hrsoftware-logo</title><path d="M43.69,5.93A5.75,5.75,0,1,1,42,1.84,5.74,5.74,0,0,1,43.69,5.93Z" transform="translate(-0.03 -0.16)" fill="#ee3d51"/><path d="M42,41.13a5.76,5.76,0,0,1-8.15,0A5.67,5.67,0,0,1,32.27,38a15.92,15.92,0,0,0-3.85-7.49l-.07-.07a9.27,9.27,0,0,0-13,0l-.06.07a16,16,0,0,0-3.92,7.56v.11a5.74,5.74,0,1,1-6.59-6.8,16,16,0,0,0,7.53-3.86.07.07,0,0,0,0-.05,8.53,8.53,0,0,0,0-12l-.05-.07a16,16,0,0,0-7.52-3.85A5.74,5.74,0,0,1,1.7,1.85a5.78,5.78,0,0,1,8.18.06A5.74,5.74,0,0,1,11.43,5a15.83,15.83,0,0,0,3.85,7.49l.06.07a9.28,9.28,0,0,0,13,0l.07-.07a2.13,2.13,0,0,1,1.5-.63,2.09,2.09,0,0,1,1.49.63A2,2,0,0,1,32,14a2.13,2.13,0,0,1-.61,1.5l-.23.23a8.52,8.52,0,0,0,0,11.65l.23.23a16,16,0,0,0,7.48,3.83A5.75,5.75,0,0,1,42,41.13Z" transform="translate(-0.03 -0.16)" fill="#fff"/><path d="M51.15,11.6a3,3,0,0,1-1.92-.47,2,2,0,0,1-.62-1.6V8.75a1.91,1.91,0,0,1,.67-1.61,3,3,0,0,1,1.92-.51,2.85,2.85,0,0,1,1.87.51,2,2,0,0,1,.61,1.61v.73A1.91,1.91,0,0,1,53,11.13,2.93,2.93,0,0,1,51.15,11.6Zm2.08,28.58a2.08,2.08,0,0,1-.6,1.5,2.09,2.09,0,0,1-3,0,2.12,2.12,0,0,1-.56-1.5V17.12a2.06,2.06,0,0,1,.58-1.49,2.09,2.09,0,0,1,3.57,1.49Z" transform="translate(-0.03 -0.16)" fill="#fff"/><path d="M82.78,3.92a2,2,0,0,1,1.49.58A2,2,0,0,1,84.85,6V40.18a2.08,2.08,0,0,1-.6,1.5,2.08,2.08,0,0,1-3,0,2.13,2.13,0,0,1-.57-1.5v-5l1-.36a5.37,5.37,0,0,1-.78,2.62,9.86,9.86,0,0,1-2.13,2.59,11.6,11.6,0,0,1-3.18,2,10.35,10.35,0,0,1-4,.78,11.46,11.46,0,0,1-6.29-1.78,12.67,12.67,0,0,1-4.49-5,15.31,15.31,0,0,1-1.64-7.21,15.34,15.34,0,0,1,1.64-7.29,12.53,12.53,0,0,1,4.42-5,11.26,11.26,0,0,1,6.22-1.79,11.19,11.19,0,0,1,7.46,2.71,10.33,10.33,0,0,1,2.25,2.76,6.28,6.28,0,0,1,.83,3l-1.35-.31V6a2.08,2.08,0,0,1,.57-1.48A2,2,0,0,1,82.78,3.92ZM72.11,39a8.11,8.11,0,0,0,4.58-1.33,8.84,8.84,0,0,0,3.1-3.59,11.86,11.86,0,0,0,1.11-5.21,12,12,0,0,0-1.11-5.28A9,9,0,0,0,76.67,20a8.19,8.19,0,0,0-4.58-1.33A8,8,0,0,0,67.55,20a9,9,0,0,0-3.14,3.6,11.58,11.58,0,0,0-1.15,5.24A11.35,11.35,0,0,0,64.41,34a9.2,9.2,0,0,0,3.14,3.66A7.85,7.85,0,0,0,72.11,39Z" transform="translate(-0.03 -0.16)" fill="#fff"/><path d="M118,28.82a14.46,14.46,0,0,1-1.79,7.25,13.39,13.39,0,0,1-4.82,5,13.76,13.76,0,0,1-13.66,0,13.32,13.32,0,0,1-4.85-5,14.55,14.55,0,0,1-1.79-7.21,14.46,14.46,0,0,1,1.79-7.22,13.25,13.25,0,0,1,4.85-5,13.73,13.73,0,0,1,13.67,0,13.34,13.34,0,0,1,4.83,5A14.53,14.53,0,0,1,118,28.82Zm-4.15,0a11.08,11.08,0,0,0-1.22-5.29A9.07,9.07,0,0,0,99.82,20a9.42,9.42,0,0,0-3.34,3.58,11.06,11.06,0,0,0-1.25,5.29,10.87,10.87,0,0,0,1.25,5.25,9.48,9.48,0,0,0,3.34,3.6,9.14,9.14,0,0,0,9.49,0,9.35,9.35,0,0,0,3.32-3.6A10.87,10.87,0,0,0,113.85,28.82Z" transform="translate(-0.03 -0.16)" fill="#fff"/></svg>