<svg xmlns="http://www.w3.org/2000/svg" width="118.32" height="42.77" viewBox="0 0 118.32 42.77"><title>logo</title><path d="M44.81,6.78A5.77,5.77,0,1,1,39,1,5.77,5.77,0,0,1,44.81,6.78Z" transform="translate(-1 -1.02)" fill="#fea82b"/><path d="M43.14,42.08a5.77,5.77,0,0,1-8.17,0,5.69,5.69,0,0,1-1.61-3.16,16,16,0,0,0-3.86-7.5.23.23,0,0,0-.07-.07,9.31,9.31,0,0,0-13,0l-.06.07A16.05,16.05,0,0,0,12.44,39s0,.08,0,.12a5.77,5.77,0,0,1-9.7,3,5.77,5.77,0,0,1,3.09-9.8,16,16,0,0,0,7.55-3.87l.05-.06a8.55,8.55,0,0,0,0-12l-.06-.06a16,16,0,0,0-7.54-3.87,5.7,5.7,0,0,1-3.12-1.6,5.77,5.77,0,1,1,8.21-8.1,5.71,5.71,0,0,1,1.56,3.1,16,16,0,0,0,3.86,7.51l.06.06a9.29,9.29,0,0,0,13.05,0l.07-.06v0a2.11,2.11,0,0,1,3,0,2.07,2.07,0,0,1,.61,1.48,2.11,2.11,0,0,1-.62,1.49l0,0-.22.22a8.53,8.53,0,0,0,0,11.69l.22.22A16,16,0,0,0,40,32.33a5.76,5.76,0,0,1,3.13,9.75Z" transform="translate(-1 -1.02)" fill="#fff"/><path d="M52.29,12.47A3,3,0,0,1,50.36,12a2,2,0,0,1-.62-1.61V9.61A1.9,1.9,0,0,1,50.41,8a3.1,3.1,0,0,1,1.93-.52A2.86,2.86,0,0,1,54.21,8a2,2,0,0,1,.62,1.61v.73A1.92,1.92,0,0,1,54.18,12,2.94,2.94,0,0,1,52.29,12.47Zm2.08,28.66a2.07,2.07,0,0,1-.6,1.5,2,2,0,0,1-1.48.63,1.93,1.93,0,0,1-1.51-.63,2.13,2.13,0,0,1-.57-1.5V18a2.06,2.06,0,0,1,.59-1.49,2,2,0,0,1,1.49-.6,2,2,0,0,1,1.48.6,2,2,0,0,1,.6,1.49Z" transform="translate(-1 -1.02)" fill="#fff"/><path d="M84,4.77a2,2,0,0,1,2.08,2.08V41.13a2.07,2.07,0,0,1-.6,1.5,2,2,0,0,1-1.48.63,1.93,1.93,0,0,1-1.51-.63,2.13,2.13,0,0,1-.57-1.5v-5l1-.36a5.37,5.37,0,0,1-.78,2.63A10,10,0,0,1,80,41a11.48,11.48,0,0,1-3.19,2,10.13,10.13,0,0,1-4,.78A11.46,11.46,0,0,1,66.51,42,12.8,12.8,0,0,1,62,37a15.46,15.46,0,0,1-1.64-7.23A15.53,15.53,0,0,1,62,22.46a12.61,12.61,0,0,1,4.44-5,11.36,11.36,0,0,1,6.24-1.8,11.61,11.61,0,0,1,4.11.73,11.21,11.21,0,0,1,3.36,2,10.27,10.27,0,0,1,2.26,2.76,6.22,6.22,0,0,1,.83,3l-1.35-.31v-17a2.06,2.06,0,0,1,.57-1.48A2,2,0,0,1,84,4.77ZM73.3,39.93a8.11,8.11,0,0,0,4.6-1.33A8.9,8.9,0,0,0,81,35a11.91,11.91,0,0,0,1.12-5.22A11.93,11.93,0,0,0,81,24.48a9,9,0,0,0-3.12-3.61,8.19,8.19,0,0,0-4.6-1.33,8.07,8.07,0,0,0-4.55,1.33,9.08,9.08,0,0,0-3.15,3.61,11.66,11.66,0,0,0-1.15,5.26,11.55,11.55,0,0,0,1.15,5.17,9.26,9.26,0,0,0,3.15,3.67A7.94,7.94,0,0,0,73.3,39.93Z" transform="translate(-1 -1.02)" fill="#fff"/><path d="M119.32,29.74A14.52,14.52,0,0,1,117.53,37a13.48,13.48,0,0,1-4.84,5A13.8,13.8,0,0,1,99,42a13.41,13.41,0,0,1-4.87-5,14.52,14.52,0,0,1-1.79-7.23,14.46,14.46,0,0,1,1.79-7.23,13.26,13.26,0,0,1,4.87-5,13.74,13.74,0,0,1,13.7,0,13.33,13.33,0,0,1,4.84,5A14.46,14.46,0,0,1,119.32,29.74Zm-4.16,0a11.18,11.18,0,0,0-1.22-5.31,9.38,9.38,0,0,0-3.33-3.59,9.36,9.36,0,0,0-9.52,0,9.5,9.5,0,0,0-3.35,3.59,11,11,0,0,0-1.25,5.31A10.84,10.84,0,0,0,97.74,35a9.56,9.56,0,0,0,3.35,3.61,9.18,9.18,0,0,0,9.52,0A9.43,9.43,0,0,0,113.94,35,11.05,11.05,0,0,0,115.16,29.74Z" transform="translate(-1 -1.02)" fill="#fff"/></svg>