<svg xmlns="http://www.w3.org/2000/svg" width="118.21" height="42.9" viewBox="0 0 118.21 42.9"><title>footer-logo</title><path d="M43.77,5.81a5.8,5.8,0,0,1-11.6,0A5.88,5.88,0,0,1,38,0a5.74,5.74,0,0,1,5.8,5.68h0Z" transform="translate(-0.06 0.02)" fill="#fea82b"/><path d="M42.08,41.11a5.63,5.63,0,0,1-8,0l0,0h0a5.62,5.62,0,0,1-1.59-3.19,15.54,15.54,0,0,0-3.88-7.48.09.09,0,0,0-.08-.1h0a9.25,9.25,0,0,0-12.91,0l-.1.1A15.49,15.49,0,0,0,11.58,38v.1a5.71,5.71,0,0,1-6.7,4.51h0A6,6,0,0,1,2,41.11a5.7,5.7,0,0,1-.2-8.06h0A5.39,5.39,0,0,1,5,31.43a15.37,15.37,0,0,0,7.45-3.89v-.1a8.51,8.51,0,0,0,0-12l-.1-.1a16.23,16.23,0,0,0-7.45-3.89,5.17,5.17,0,0,1-3.08-1.6,5.69,5.69,0,0,1-.24-8h0a5.66,5.66,0,0,1,8-.26l.06.06a2,2,0,0,1,.59.4,5.69,5.69,0,0,1,1.57,3,15.54,15.54,0,0,0,3.88,7.48l.1.1a9.08,9.08,0,0,0,12.83.08l.08-.08.1-.1h0a2.16,2.16,0,0,1,3,0h0a2.17,2.17,0,0,1,0,3h0l-.2.2a8.52,8.52,0,0,0,0,11.67l.2.2a15.21,15.21,0,0,0,7.45,3.79A5.77,5.77,0,0,1,43.87,38a8.07,8.07,0,0,1-1.79,3.09Z" transform="translate(-0.06 0.02)" fill="#fff"/><path d="M51.27,11.51a2.49,2.49,0,0,1-1.9-.5,1.92,1.92,0,0,1-.6-1.6v-.8a1.66,1.66,0,0,1,.6-1.6,2.59,2.59,0,0,1,1.9-.5,3.2,3.2,0,0,1,1.9.5,1.92,1.92,0,0,1,.6,1.6v.7a2.22,2.22,0,0,1-.6,1.7A4.08,4.08,0,0,1,51.27,11.51Zm2.1,28.6a2.1,2.1,0,0,1-4.2,0V17a2.1,2.1,0,1,1,4.2,0Z" transform="translate(-0.06 0.02)" fill="#fff"/><path d="M83,3.81a2.08,2.08,0,0,1,2.1,1.9v34.5a2.1,2.1,0,1,1-4.2,0h0v-5l1-.4a5,5,0,0,1-.8,2.6A10.61,10.61,0,0,1,79,40a11.56,11.56,0,0,1-3.2,2,11,11,0,0,1-4,.8,11.79,11.79,0,0,1-6.3-1.8A12.76,12.76,0,0,1,61,36a14.86,14.86,0,0,1-1.6-7.2,15.51,15.51,0,0,1,1.6-7.3,12.57,12.57,0,0,1,4.4-5,11.88,11.88,0,0,1,10.3-1.1,11.76,11.76,0,0,1,3.4,2,10.53,10.53,0,0,1,2.3,2.8,6.07,6.07,0,0,1,.8,3l-1.3-.3v-17a2.21,2.21,0,0,1,.6-1.5A1.48,1.48,0,0,1,83,3.81Zm-10.7,35.1a8.41,8.41,0,0,0,4.6-1.3A8.94,8.94,0,0,0,80,34a11.7,11.7,0,0,0,1.1-5.2,12.24,12.24,0,0,0-1.1-5.3,8.93,8.93,0,0,0-3.1-3.6,7.68,7.68,0,0,0-4.6-1.3,8.41,8.41,0,0,0-4.6,1.3,9.33,9.33,0,0,0-3.2,3.6,12.08,12.08,0,0,0,0,10.5,9.46,9.46,0,0,0,3.2,3.7,9.25,9.25,0,0,0,4.56,1.23Z" transform="translate(-0.06 0.02)" fill="#fff"/><path d="M118.27,28.71a15.74,15.74,0,0,1-1.8,7.3,12.75,12.75,0,0,1-4.8,5,13.48,13.48,0,0,1-18.46-4.76h0L93.07,36a15.3,15.3,0,0,1,0-14.4,12.41,12.41,0,0,1,4.9-5,13.93,13.93,0,0,1,13.7,0,12.75,12.75,0,0,1,4.8,5A13.39,13.39,0,0,1,118.27,28.71Zm-4.1,0a12,12,0,0,0-1.2-5.3,9,9,0,0,0-12.08-4,6.3,6.3,0,0,0-.72.4,8.75,8.75,0,0,0-3.3,3.6,11,11,0,0,0-1.3,5.3,11.23,11.23,0,0,0,1.3,5.3,9.52,9.52,0,0,0,3.3,3.6,9,9,0,0,0,9.5,0A8.67,8.67,0,0,0,113,34,12,12,0,0,0,114.17,28.71Z" transform="translate(-0.06 0.02)" fill="#fff"/></svg>